# xmcd CD database file
#
# Track frame offsets:
#	150
#	17307
#	34382
#	53867
#
# Disc length: 992 seconds
#
# Revision: 1
# Processed by: cddbd v1.5.2PL0 Copyright (c) Steve Scherf et al.
# Submitted via: CDex 1.81
#
DISCID=2803de04
DTITLE=Portrait - How Deep Is your Love
DYEAR=1994
DGENRE=Blues
TTITLE0=How Deep Is Your Love (Original Radio Edit)
TTITLE1=How Deep Is Your Love (Churban Fluctuator Mix)
TTITLE2=How Deep Is Your Love (Portrait's Urban Mix)
TTITLE3=Lovin You Is Ah-ight
EXTD=YEAR: 1994
EXTT0=
EXTT1=
EXTT2=
EXTT3=
PLAYORDER=
